<?xml version="1.0" standalone="no"?>
<!DOCTYPE svg PUBLIC "-//W3C//DTD SVG 20010904//EN"
 "http://www.w3.org/TR/2001/REC-SVG-20010904/DTD/svg10.dtd">
<svg version="1.0" xmlns="http://www.w3.org/2000/svg"
 width="400.000000pt" height="400.000000pt" viewBox="0 0 400.000000 400.000000"
 preserveAspectRatio="xMidYMid meet">

<g transform="translate(0.000000,400.000000) scale(0.100000,-0.100000)"
fill="#000000" stroke="none">
<path d="M2163 3219 c-18 -18 -16 -36 3 -43 25 -9 6 -26 -30 -26 -30 0 -34 -5
-64 -67 -17 -38 -33 -79 -34 -93 -2 -16 -11 -26 -28 -30 -17 -5 -2 -9 48 -14
l72 -7 0 -104 c0 -110 -5 -135 -25 -135 -7 0 -26 -12 -43 -26 -30 -26 -30 -27
-16 -67 8 -22 14 -41 14 -43 0 -2 -24 -4 -54 -4 l-54 0 -20 68 c-17 57 -19 77
-10 137 5 38 14 72 19 76 6 3 49 19 96 34 103 35 97 39 -69 56 -70 7 -124 17
-135 26 -16 12 -8 13 67 9 l85 -5 -75 13 c-58 9 -86 9 -125 0 -27 -6 -94 -22
-148 -34 -67 -16 -94 -26 -88 -34 5 -6 1 -78 -10 -171 -10 -88 -18 -163 -19
-167 0 -5 -34 -8 -75 -8 -72 0 -75 -1 -90 -30 -18 -34 -21 -155 -4 -166 6 -3
9 -18 6 -33 -5 -22 -2 -27 16 -28 22 -2 48 -32 55 -62 8 -42 11 -114 5 -124
-4 -7 -8 -16 -8 -22 0 -19 -30 -55 -45 -55 -40 -1 25 -18 145 -39 72 -12 179
-31 239 -42 150 -28 349 -40 474 -29 56 5 107 12 111 15 9 5 311 -30 357 -41
12 -3 24 -1 28 4 5 9 -123 35 -236 48 -62 7 -68 18 -16 28 18 3 46 13 61 21
24 12 42 13 130 1 56 -8 131 -17 167 -20 112 -10 36 11 -125 34 -183 26 -212
39 -95 41 47 1 69 4 50 6 -19 2 -114 10 -210 18 -96 9 -187 18 -202 21 -30 6
-39 24 -12 24 9 0 22 7 28 16 9 11 33 17 82 20 l69 3 -64 -12 c-35 -7 -66 -17
-68 -23 -5 -14 238 -40 264 -29 10 5 95 8 188 8 l170 -1 -190 13 c-104 7 -196
14 -203 14 -8 1 -12 11 -10 28 4 31 28 44 28 15 0 -17 37 -43 43 -30 1 1 8 13
15 25 8 16 12 77 12 202 l0 180 -77 3 -78 3 -3 72 c-3 72 -3 72 25 76 l28 4
-26 2 -27 1 -7 216 c-6 164 -4 218 5 224 7 4 -1 10 -21 14 -18 3 -34 4 -36 2
-4 -4 -3 -496 1 -581 l1 -30 -89 -3 -88 -3 6 258 c4 142 7 287 8 322 l1 63 51
-5 51 -6 -45 15 c-71 23 -113 27 -127 13z m-372 -329 l36 0 27 -90 c23 -73 27
-99 21 -142 -15 -105 -5 -99 -167 -96 l-143 3 2 25 c1 14 5 87 8 162 8 157 2
150 115 142 36 -2 81 -4 101 -4z m122 -23 c3 -8 0 -36 -6 -63 l-10 -49 -13 44
c-8 24 -16 52 -19 62 -5 15 -1 19 18 19 14 0 27 -6 30 -13z m7 -289 c0 -10 -7
-18 -15 -18 -17 0 -18 4 -8 38 4 18 8 20 14 10 5 -7 9 -21 9 -30z m-408 -50
c-2 -14 4 -18 27 -18 24 0 28 3 24 20 -5 19 0 20 162 20 153 0 166 -1 163 -17
-3 -16 -19 -18 -131 -21 l-127 -3 0 -69 0 -70 85 0 c80 0 109 -11 66 -25 -11
-3 -26 -17 -35 -30 -14 -21 -25 -25 -69 -27 l-52 -1 45 -6 c39 -5 45 -9 44
-28 0 -13 -1 -49 -2 -80 -2 -62 -18 -63 -25 -3 l-4 35 -1 -37 c-2 -43 -3 -43
-102 -25 l-65 12 -11 55 c-19 97 -52 139 -120 154 -29 7 -30 8 -32 73 -2 46 2
72 13 90 15 22 22 24 83 21 57 -3 67 -6 64 -20z m696 -36 l3 -52 -45 0 -46 0
0 48 c0 27 3 52 7 56 4 4 23 5 43 4 35 -4 35 -4 38 -56z m390 0 l3 -52 -160 0
-161 0 0 25 c0 23 4 25 44 25 35 0 45 -4 49 -20 5 -19 12 -20 85 -18 70 2 79
4 74 20 -2 11 -14 18 -28 18 -18 0 -24 5 -24 23 0 33 5 36 63 33 l52 -2 3 -52z
m-520 -36 c2 -44 1 -84 -1 -91 -4 -8 -31 -9 -98 -3 -51 5 -95 10 -97 13 -5 5
17 144 25 158 3 4 41 6 86 5 l82 -3 3 -79z m123 -146 c-3 -124 -12 -164 -35
-168 -30 -6 -36 16 -36 146 l0 123 37 -3 37 -3 -3 -95z m397 18 c3 -62 -6 -73
-28 -33 -19 35 -32 31 -28 -7 2 -25 9 -34 28 -38 28 -7 -123 -20 -227 -20
l-64 0 3 73 3 72 135 6 c194 8 175 13 178 -53z m-681 -46 c7 -9 13 -23 13 -29
0 -7 5 -13 11 -13 6 0 9 -9 6 -19 -3 -12 1 -22 10 -25 12 -5 13 -9 3 -21 -7
-8 -8 -15 -3 -15 17 0 13 -88 -4 -94 -9 -4 -13 -13 -9 -22 6 -16 -21 -58 -53
-80 -32 -23 -83 -1 -112 48 -20 35 -24 57 -24 118 0 64 4 82 28 122 28 48 50
60 96 51 14 -2 31 -12 38 -21z m102 12 c11 -3 11 -7 1 -19 -10 -12 -9 -15 9
-15 24 0 27 -10 9 -28 -9 -9 -8 -12 5 -12 19 0 24 -20 5 -20 -8 -1 -7 -5 4
-13 16 -13 24 -87 8 -87 -4 0 -5 -10 -3 -22 5 -27 -25 -71 -34 -50 -4 10 -8
10 -19 1 -12 -9 -14 -4 -14 30 0 24 5 41 11 41 8 0 7 5 -2 16 -10 13 -10 17 0
24 9 5 10 9 2 11 -6 2 -12 23 -14 46 -1 25 -8 45 -16 48 -11 4 -11 8 0 21 10
13 9 16 -9 21 -35 9 -25 23 11 17 17 -3 38 -8 46 -10z m171 -184 c0 -5 -7 -10
-16 -10 -8 0 -12 5 -9 10 3 6 10 10 16 10 5 0 9 -4 9 -10z"/>
<path d="M1524 2436 c-4 -10 -2 -22 4 -28 8 -8 13 -7 18 6 4 10 2 22 -4 28 -8
8 -13 7 -18 -6z"/>
<path d="M2348 2363 l-48 -4 0 -55 0 -54 105 0 105 0 0 60 0 60 -57 -2 c-32
-1 -79 -3 -105 -5z"/>
<path d="M1844 2218 c-19 -23 -19 -23 1 -7 11 9 27 19 35 22 13 5 13 6 -1 6
-9 1 -24 -9 -35 -21z"/>
<path d="M1890 2181 c-19 -37 -6 -111 20 -111 13 0 23 63 15 99 -8 36 -20 40
-35 12z"/>
<path d="M2348 3183 c7 -3 16 -2 19 1 4 3 -2 6 -13 5 -11 0 -14 -3 -6 -6z"/>
<path d="M2278 3163 c6 -2 18 -2 25 0 6 3 1 5 -13 5 -14 0 -19 -2 -12 -5z"/>
<path d="M2348 2723 c6 -2 18 -2 25 0 6 3 1 5 -13 5 -14 0 -19 -2 -12 -5z"/>
<path d="M1990 2671 c0 -6 4 -13 10 -16 6 -3 7 1 4 9 -7 18 -14 21 -14 7z"/>
<path d="M1385 2208 c-9 -22 -2 -68 10 -71 14 -3 19 63 6 76 -7 7 -12 5 -16
-5z"/>
</g>
</svg>
